<svg xmlns="http://www.w3.org/2000/svg" version="1.1" xmlns:xlink="http://www.w3.org/1999/xlink" xmlns:svgjs="http://svgjs.com/svgjs" width="1440" height="560" preserveAspectRatio="none" viewBox="0 0 1440 560">
    <g mask="url(&quot;#SvgjsMask1030&quot;)" fill="none">
        <rect width="1440" height="560" x="0" y="0" fill="rgba(248, 233, 202, 1)"></rect>
        <path d="M50.91 140C100.39 93.75 99.21 89.83 140 35C151.29 19.83 138.72 4.09 155.08 0C208.72 -13.41 217.54 0 280 0C350 0 350 0 420 0C490 0 490 0 560 0C630 0 630 0 700 0C770 0 770 0 840 0C910 0 910 0 980 0C996.15 0 1002.76 -11.6 1012.31 0C1060.41 58.4 1054.64 69.53 1095.29 140C1108.48 162.87 1109.99 186.67 1120 186.67C1129.23 186.67 1129.87 163.95 1133.77 140C1145.08 70.61 1114.92 39.39 1150.43 0C1178.03 -30.61 1205.22 0 1260 0C1330 0 1330 0 1400 0C1448.79 0 1450.52 -7.24 1497.58 0C1520.52 3.53 1533.92 1.48 1540 21.54C1555.13 71.48 1540 80.77 1540 140C1540 206.38 1569.59 269.06 1540 272.76C1499.59 277.81 1472.53 162.98 1400 157.5C1332.53 152.4 1332.88 210.14 1260 251.59C1225.19 271.39 1184.62 264.39 1184.62 280C1184.62 296.1 1219.89 308.78 1260 315C1327.58 325.48 1330.5 319.73 1400 313.41C1470.5 307 1503.51 261.77 1540 289.55C1573.51 315.07 1540 354.77 1540 420C1540 490 1575 525 1540 560C1505 595 1470 560 1400 560C1330 560 1330 560 1260 560C1190 560 1190 560 1120 560C1050 560 1050 560 980 560C910 560 910 560 840 560C770 560 770 560 700 560C650.59 560 647.23 570.12 601.18 560C577.23 554.74 579.7 529.23 560 529.23C542.83 529.23 548.04 555.47 527.44 560C478.04 570.86 473.72 560 420 560C350 560 350 560 280 560C210 560 210 560 140 560C70 560 35 595 0 560C-35 525 0 490 0 420C0 350 0 350 0 280C0 222.93 -16.97 212.51 0 165.85C8.49 142.51 30.39 159.18 50.91 140" stroke="rgba(201, 154, 110, 0.4)" stroke-width="2"></path>
        <path d="M560 120.91C555.15 120.91 551.76 131.52 551.76 140C551.76 144.25 555.61 146.36 560 146.36C565.73 146.36 572 144.78 572 140C572 132.06 565.27 120.91 560 120.91" stroke="rgba(239, 215, 189, 1)" stroke-width="2"></path>
        <path d="M840 77.24C819.1 77.24 805.64 104.76 799.56 140C788.14 206.14 793.65 211.59 805 280C813.87 333.44 813.82 383.7 840 383.7C871.32 383.7 909.45 337.94 920 280C931.64 216.09 910.5 206.17 884.39 140C870.5 104.79 861.52 77.24 840 77.24" stroke="rgba(201, 154, 110, 0.4)" stroke-width="2"></path>
        <path d="M420 241.82C368.27 241.82 341.33 241.52 305.45 280C271.33 316.61 291.21 335.76 280 392C277.26 405.76 277.54 406.26 277.54 420C277.54 422.52 277.54 423.88 280 424.52C348.77 442.54 355.41 458.99 420 457.33C443.1 456.73 451.19 443.81 455.37 420C466.75 355.15 464.19 345.91 451.11 280C446.51 256.82 441.1 241.82 420 241.82" stroke="rgba(239, 215, 189, 1)" stroke-width="2"></path>
        <path d="M152.44 140C183.4 71.86 165.56 47.59 208.92 0C229.34 -22.41 244.46 0 280 0C350 0 350 0 420 0C478.34 0 522.85 -30.64 536.67 0C554.42 39.36 521.21 78.4 483.14 140C462.87 172.79 455.79 172.48 420 188.79C354.22 218.77 344.02 201.06 280 232.58C251.4 246.66 244.89 250.3 234.77 280C212.96 344.01 204.52 353.87 216.14 420C227.14 482.58 231.27 519.2 280 537.42C333.2 557.31 356.68 489.3 420 496.22C460.05 500.59 486.74 541.49 486.74 560C486.74 573.38 453.37 560 420 560C350 560 350 560 280 560C210 560 210 560 140 560C70 560 67.31 562.69 0 560C-2.69 559.89 -1.12 556.96 0 554.4C29.43 486.96 61.09 482.1 61.09 420C61.09 382.59 16.53 393.27 0 355.38C-14.01 323.27 0 317.69 0 280C0 249.85 -19.55 237.61 0 219.69C50.45 173.44 71.31 187.58 140 151.67C147.53 147.73 148.94 147.7 152.44 140" stroke="rgba(201, 154, 110, 0.4)" stroke-width="2"></path>
        <path d="M672 140C678.79 83.57 575.77 41.14 584 0C589.77 -28.86 642 0 700 0C753.42 0 802.54 -27.63 806.84 0C813.43 42.37 733.85 65.85 721.78 140C711.06 205.85 759.07 209.49 761.25 280C763.4 349.49 724.15 351.82 730.43 420C737.04 491.82 796.68 515.59 787.03 560C781.47 585.59 743.51 560 700 560C676.33 560 672.98 570.05 652.65 560C602.98 535.44 603.43 528.66 560 490.77C523.21 458.66 505.73 463.39 492.21 420C472.89 358.01 474.87 343.3 494.32 280C508.76 232.99 519.97 230.93 560 199.39C608.81 160.93 666.79 183.26 672 140" stroke="rgba(239, 215, 189, 1)" stroke-width="2"></path>
        <path d="M969.76 140C969.76 129.98 974.49 120.91 980 120.91C985.78 120.91 992.35 129.81 992.35 140C992.35 155.51 985.7 172.31 980 172.31C974.41 172.31 969.76 155.68 969.76 140" stroke="rgba(201, 154, 110, 0.4)" stroke-width="2"></path>
        <path d="M1191.15 140C1169.56 79.36 1165.69 46.33 1188.48 0C1200.12 -23.67 1224.24 0 1260 0C1327.14 0 1375.21 -33.08 1394.29 0C1415.59 36.92 1380.86 80.03 1340.77 140C1313.72 180.47 1299.2 200.87 1260 200.87C1224.39 200.87 1205.32 179.8 1191.15 140" stroke="rgba(201, 154, 110, 0.4)" stroke-width="2"></path>
        <path d="M1459.23 140C1459.23 106.56 1515.14 75.38 1540 75.38C1555.53 75.38 1540 107.69 1540 140C1540 176.2 1556.17 212.41 1540 212.41C1515.78 212.41 1459.23 175.07 1459.23 140" stroke="rgba(201, 154, 110, 0.4)" stroke-width="2"></path>
        <path d="M1070.32 420C1100.72 394.14 1085.46 363.57 1120 355.83C1180.3 342.32 1190.11 378.16 1260 377.5C1330.11 376.84 1329.7 355.29 1400 353.18C1469.7 351.09 1488.58 344.55 1540 369.09C1558.58 377.96 1540 394.54 1540 420C1540 482.22 1551.13 488.77 1540 544.44C1537.13 558.77 1527.57 558.27 1512 560C1457.57 566.05 1456 560 1400 560C1330 560 1330 560 1260 560C1190 560 1190 560 1120 560C1050 560 1050 560 980 560C931.78 560 883.56 578.23 883.56 560C883.56 535.68 928.74 513.32 980 474.9C1022.12 443.32 1030.72 453.68 1070.32 420" stroke="rgba(239, 215, 189, 1)" stroke-width="2"></path>
        <path d="M230.22 140C224.19 78.33 240.54 62.51 262.77 0C265.43 -7.49 271.38 0 280 0C350 0 350 0 420 0C429.72 0 439.44 -8.01 439.44 0C439.44 41.99 432.31 50.75 420 100C414.81 120.75 421.86 130.53 404.44 140C351.86 168.59 339.07 176.13 280 176.13C251.96 176.13 232.8 166.39 230.22 140" stroke="rgba(239, 215, 189, 1)" stroke-width="2"></path>
        <path d="M700 25.45C692.23 25.45 684 8.3 684 0C684 -4.42 692 0 700 0C707.37 0 714.74 -4.25 714.74 0C714.74 8.48 707.6 25.45 700 25.45" stroke="rgba(201, 154, 110, 0.4)" stroke-width="2"></path>
        <path d="M1248.52 140C1233.41 72.25 1221.88 56.62 1226.52 0C1227.62 -13.38 1243.26 0 1260 0C1291.43 0 1320.86 -20.82 1322.86 0C1327.59 49.18 1301.69 72.58 1273.46 140C1270.26 147.65 1266.53 150.14 1260 150.14C1254.06 150.14 1250.15 147.32 1248.52 140" stroke="rgba(239, 215, 189, 1)" stroke-width="2"></path>
        <path d="M1526.54 140C1526.54 134.43 1535.86 129.23 1540 129.23C1542.59 129.23 1540 134.62 1540 140C1540 146.03 1542.69 152.07 1540 152.07C1535.96 152.07 1526.54 145.85 1526.54 140" stroke="rgba(239, 215, 189, 1)" stroke-width="2"></path>
        <path d="M0 273.54C67.08 246.99 78.23 222.37 140 224.58C168.69 225.6 178.52 248.15 180.92 280C185.89 345.86 170.49 350.73 154.74 420C150.03 440.73 147.49 460 140 460C132.48 460 138.09 436.4 124.73 420C68.09 350.44 59.71 355.1 0 288.08C-2.66 285.1 0 284.04 0 280C0 276.77 -2.92 274.7 0 273.54" stroke="rgba(239, 215, 189, 1)" stroke-width="2"></path>
        <path d="M537.53 280C540.66 263.05 543.71 257.43 560 252.42C624.94 232.43 642.67 219.96 700 230C721.42 233.75 717.5 255.1 717.5 280C717.5 303.43 712.92 305.59 700 326.67C670.02 375.59 673.37 382.61 631.71 420C603.37 445.43 592.72 452.31 560 452.31C541.39 452.31 531.77 440.84 529.05 420C520.53 354.68 525.19 346.84 537.53 280" stroke="rgba(239, 215, 189, 1)" stroke-width="2"></path>
        <path d="M1304.8 420C1304.8 397.88 1352.47 392.95 1400 392.95C1445.84 392.95 1491.54 398.02 1491.54 420C1491.54 446.54 1446.1 490 1400 490C1352.73 490 1304.8 446.41 1304.8 420" stroke="rgba(201, 154, 110, 0.4)" stroke-width="2"></path>
        <path d="M357.78 560C357.78 553.55 391.3 535.11 420 535.11C435.43 535.11 446.05 552.78 446.05 560C446.05 565.22 433.02 560 420 560C388.89 560 357.78 565.99 357.78 560" stroke="rgba(239, 215, 189, 1)" stroke-width="2"></path>
        <path d="M961.33 560C961.33 555.29 968.52 543.53 980 543.53C1016.03 543.53 1056.36 555.84 1056.36 560C1056.36 564.07 1018.18 560 980 560C970.66 560 961.33 563.53 961.33 560" stroke="rgba(239, 215, 189, 1)" stroke-width="2"></path>
    </g>
    <defs>
        <mask id="SvgjsMask1030">
            <rect width="1440" height="560" fill="#ffffff"></rect>
        </mask>
    </defs>
</svg>